<svg xmlns="http://www.w3.org/2000/svg" width="32" height="32" viewBox="0 0 16 16" shape-rendering="crispEdges"><rect x="0" y="0" width="3" height="1" fill="#000000"/><rect x="0" y="1" width="1" height="1" fill="#000000"/><rect x="1" y="1" width="1" height="1" fill="#e8e8f0"/><rect x="2" y="1" width="2" height="1" fill="#000000"/><rect x="0" y="2" width="1" height="1" fill="#000000"/><rect x="1" y="2" width="1" height="1" fill="#9aa3b2"/><rect x="2" y="2" width="1" height="1" fill="#e8e8f0"/><rect x="3" y="2" width="2" height="1" fill="#000000"/><rect x="0" y="3" width="2" height="1" fill="#000000"/><rect x="2" y="3" width="1" height="1" fill="#9aa3b2"/><rect x="3" y="3" width="1" height="1" fill="#e8e8f0"/><rect x="4" y="3" width="2" height="1" fill="#000000"/><rect x="1" y="4" width="2" height="1" fill="#000000"/><rect x="3" y="4" width="1" height="1" fill="#9aa3b2"/><rect x="4" y="4" width="1" height="1" fill="#e8e8f0"/><rect x="5" y="4" width="2" height="1" fill="#000000"/><rect x="2" y="5" width="2" height="1" fill="#000000"/><rect x="4" y="5" width="1" height="1" fill="#9aa3b2"/><rect x="5" y="5" width="1" height="1" fill="#e8e8f0"/><rect x="6" y="5" width="2" height="1" fill="#000000"/><rect x="3" y="6" width="2" height="1" fill="#000000"/><rect x="5" y="6" width="1" height="1" fill="#9aa3b2"/><rect x="6" y="6" width="1" height="1" fill="#e8e8f0"/><rect x="7" y="6" width="2" height="1" fill="#000000"/><rect x="4" y="7" width="2" height="1" fill="#000000"/><rect x="6" y="7" width="1" height="1" fill="#9aa3b2"/><rect x="7" y="7" width="1" height="1" fill="#e8e8f0"/><rect x="8" y="7" width="2" height="1" fill="#000000"/><rect x="11" y="7" width="3" height="1" fill="#000000"/><rect x="5" y="8" width="2" height="1" fill="#000000"/><rect x="7" y="8" width="1" height="1" fill="#9aa3b2"/><rect x="8" y="8" width="1" height="1" fill="#e8e8f0"/><rect x="9" y="8" width="3" height="1" fill="#000000"/><rect x="12" y="8" width="1" height="1" fill="#e8b23a"/><rect x="13" y="8" width="1" height="1" fill="#000000"/><rect x="6" y="9" width="2" height="1" fill="#000000"/><rect x="8" y="9" width="1" height="1" fill="#9aa3b2"/><rect x="9" y="9" width="1" height="1" fill="#e8e8f0"/><rect x="10" y="9" width="1" height="1" fill="#000000"/><rect x="11" y="9" width="1" height="1" fill="#e8b23a"/><rect x="12" y="9" width="2" height="1" fill="#000000"/><rect x="7" y="10" width="3" height="1" fill="#000000"/><rect x="10" y="10" width="1" height="1" fill="#e8b23a"/><rect x="11" y="10" width="2" height="1" fill="#000000"/><rect x="7" y="11" width="2" height="1" fill="#000000"/><rect x="9" y="11" width="1" height="1" fill="#e8b23a"/><rect x="10" y="11" width="1" height="1" fill="#000000"/><rect x="11" y="11" width="1" height="1" fill="#6b4a2e"/><rect x="12" y="11" width="2" height="1" fill="#000000"/><rect x="7" y="12" width="1" height="1" fill="#000000"/><rect x="8" y="12" width="1" height="1" fill="#e8b23a"/><rect x="9" y="12" width="3" height="1" fill="#000000"/><rect x="12" y="12" width="1" height="1" fill="#6b4a2e"/><rect x="13" y="12" width="3" height="1" fill="#000000"/><rect x="7" y="13" width="3" height="1" fill="#000000"/><rect x="11" y="13" width="2" height="1" fill="#000000"/><rect x="13" y="13" width="2" height="1" fill="#e8b23a"/><rect x="15" y="13" width="1" height="1" fill="#000000"/><rect x="12" y="14" width="1" height="1" fill="#000000"/><rect x="13" y="14" width="2" height="1" fill="#e8b23a"/><rect x="15" y="14" width="1" height="1" fill="#000000"/><rect x="12" y="15" width="4" height="1" fill="#000000"/></svg>
